<svg id="visual" viewBox="0 0 960 540" width="1920" height="1080" xmlns="http://www.w3.org/2000/svg" xmlns:xlink="http://www.w3.org/1999/xlink" version="1.1"><rect x="0" y="0" width="960" height="540" fill="#001220"></rect><path d="M427 540L430.7 510C434.3 480 441.7 420 423.8 360C406 300 363 240 326.5 180C290 120 260 60 245 30L230 0L960 0L960 30C960 60 960 120 960 180C960 240 960 300 960 360C960 420 960 480 960 510L960 540Z" fill="#ffffff"></path><path d="M432 540L435.2 510C438.3 480 444.7 420 463.5 360C482.3 300 513.7 240 496.2 180C478.7 120 412.3 60 379.2 30L346 0L960 0L960 30C960 60 960 120 960 180C960 240 960 300 960 360C960 420 960 480 960 510L960 540Z" fill="#fdfcff"></path><path d="M651 540L647.8 510C644.7 480 638.3 420 598.2 360C558 300 484 240 455.3 180C426.7 120 443.3 60 451.7 30L460 0L960 0L960 30C960 60 960 120 960 180C960 240 960 300 960 360C960 420 960 480 960 510L960 540Z" fill="#fcf9ff"></path><path d="M660 540L631 510C602 480 544 420 536.5 360C529 300 572 240 583.8 180C595.7 120 576.3 60 566.7 30L557 0L960 0L960 30C960 60 960 120 960 180C960 240 960 300 960 360C960 420 960 480 960 510L960 540Z" fill="#faf6ff"></path><path d="M687 540L703.5 510C720 480 753 420 770.5 360C788 300 790 240 774.8 180C759.7 120 727.3 60 711.2 30L695 0L960 0L960 30C960 60 960 120 960 180C960 240 960 300 960 360C960 420 960 480 960 510L960 540Z" fill="#f8f3ff"></path><path d="M743 540L763.3 510C783.7 480 824.3 420 825 360C825.7 300 786.3 240 757.3 180C728.3 120 709.7 60 700.3 30L691 0L960 0L960 30C960 60 960 120 960 180C960 240 960 300 960 360C960 420 960 480 960 510L960 540Z" fill="#f7f0ff"></path><path d="M960 540L960 510C960 480 960 420 946.2 360C932.3 300 904.7 240 893.7 180C882.7 120 888.3 60 891.2 30L894 0L960 0L960 30C960 60 960 120 960 180C960 240 960 300 960 360C960 420 960 480 960 510L960 540Z" fill="#f5edff"></path></svg>