<svg width="1920" height="4320" viewBox="0 0 1920 4320" fill="none" xmlns="http://www.w3.org/2000/svg">
<path d="M-4.72083e-05 1080C66.5693 1028.14 446.657 1138.22 586.611 874.693C822.857 429.861 620.647 -0.000289227 938.978 -4.28817e-05C1053.3 4.55876e-05 1684.75 0.53459 1801.88 0.53461L1920 0.534654L1920 1080L1813.22 1080C1706.44 1080 1492.89 1080 1279.33 1080C1065.78 1080 852.221 1080 638.665 1080C426.945 1080 106.778 1080 -4.72083e-05 1080Z" fill="white"/>
<path d="M-4.72083e-05 4320C66.5443 4268.11 628.922 4349.46 763.23 4082.5C1047.42 3517.63 -3.01507 3240 0.0065918 3240C114.285 3240.02 1684.84 3240 1801.92 3240L1920 3240L1920 4320L1813.26 4320C1706.52 4320 1493.05 4320 1279.57 4320C1066.1 4320 852.622 4320 639.147 4320C427.506 4320 106.738 4320 -4.72083e-05 4320Z" fill="white"/>
<path d="M1920 3240C1853.43 3188.24 1654 3220 1333.39 3035.1C835.564 2748 895 2160 893 2160C886.5 2160 768.5 2160 499.5 2160L237 2160L-1.38254e-05 2160L3.33844e-05 3240L106.778 3240C213.556 3240 427.112 3240 640.667 3240C854.223 3240 1067.78 3240 1281.33 3240C1493.05 3240 1813.22 3240 1920 3240Z" fill="white"/>
<path d="M1920 1080C1853.43 1131.76 1654 1100 1333.39 1284.9C835.564 1572 895 2160 893 2160C886.5 2160 768.5 2160 499.5 2160L237 2160L0 2160L4.72098e-05 1080L106.778 1080C213.556 1080 427.112 1080 640.667 1080C854.223 1080 1067.78 1080 1281.33 1080C1493.06 1080 1813.22 1080 1920 1080Z" fill="white"/>
</svg>
